<svg width="22" height="22" viewBox="0 0 22 22" fill="none" xmlns="http://www.w3.org/2000/svg">
<g clip-path="url(#clip0_1105_249)">
<path d="M20.9061 17.06C20.9858 16.9375 21.0272 16.7941 21.0251 16.648V16.647L21.1501 5.35498V5.34598C21.1501 5.24998 21.1501 5.16698 21.1431 5.09998C21.139 5.02665 21.1166 4.9555 21.0781 4.89298C21.0359 4.83346 20.9795 4.78535 20.9141 4.75298C20.8541 4.71998 20.7781 4.68798 20.6901 4.64998L20.6841 4.64698H20.6811L11.3061 0.859976L11.2801 0.849976H10.8451L10.8191 0.859976L1.4481 4.64498C1.29225 4.69685 1.15054 4.78413 1.0341 4.89998C0.924921 5.0015 0.859028 5.14116 0.850098 5.28998V16.647C0.850098 16.934 0.993098 17.267 1.3281 17.357L10.6941 21.139L10.7211 21.15H11.1551L11.1811 21.14L20.5561 17.354L20.5681 17.348C20.704 17.2836 20.8205 17.1846 20.9061 17.061V17.06ZM8.5301 3.39998L11.0001 2.42298L18.2821 5.35298L15.8131 6.32698L8.5301 3.39998ZM10.2251 9.68297V19.328L2.4001 16.167V6.52198L10.2251 9.68198V9.68297ZM6.5001 4.25298L13.7831 7.18198L11.0001 8.28298L3.7171 5.35398L6.5001 4.25298ZM19.6001 6.52198V16.167L11.7751 19.327V9.68198L19.6001 6.52198Z" fill="black" stroke="black" stroke-width="0.3"/>
</g>
<defs>
<clipPath id="clip0_1105_249">
<rect width="22" height="22" fill="white"/>
</clipPath>
</defs>
</svg>
