<svg width="16" height="20" viewBox="0 0 16 20" fill="none" xmlns="http://www.w3.org/2000/svg">
<g clip-path="url(#clip0_1105_252)">
<path fill-rule="evenodd" clip-rule="evenodd" d="M12.423 0.233969C12.2637 0.083327 12.0528 -0.000610352 11.8335 -0.000610352C11.6142 -0.000610352 11.4033 0.083327 11.244 0.233969C11.1668 0.306621 11.1052 0.394318 11.0631 0.491659C11.021 0.588999 10.9993 0.693923 10.9993 0.799969C10.9993 0.906015 11.021 1.01094 11.0631 1.10828C11.1052 1.20562 11.1668 1.29332 11.244 1.36597L13.26 3.29997H4C2.95236 3.29496 1.94178 3.68733 1.172 4.39797C0.80514 4.73594 0.511766 5.14581 0.310137 5.60206C0.108508 6.0583 0.00293916 6.55116 0 7.04997L0 8.54997C0 8.96397 0.358 9.29997 0.8 9.29997C1.242 9.29997 1.6 8.96397 1.6 8.54997V7.04997C1.6 6.45297 1.853 5.87997 2.303 5.45897C2.76474 5.0321 3.37119 4.79624 4 4.79897H13.155L11.245 6.63397C11.1678 6.70662 11.1062 6.79432 11.0641 6.89166C11.022 6.989 11.0003 7.09392 11.0003 7.19997C11.0003 7.30601 11.022 7.41094 11.0641 7.50828C11.1062 7.60562 11.1678 7.69332 11.245 7.76597C11.4043 7.91632 11.615 8.00008 11.834 8.00008C12.053 8.00008 12.2637 7.91632 12.423 7.76597L15.756 4.56597C15.8332 4.49332 15.8948 4.40562 15.9369 4.30828C15.979 4.21094 16.0007 4.10601 16.0007 3.99997C16.0007 3.89392 15.979 3.789 15.9369 3.69166C15.8948 3.59432 15.8332 3.50662 15.756 3.43397L12.423 0.233969ZM3.577 19.365C3.73631 19.5156 3.94725 19.5995 4.1665 19.5995C4.38575 19.5995 4.59669 19.5156 4.756 19.365C4.83296 19.2923 4.89427 19.2046 4.93617 19.1074C4.97807 19.0101 4.99968 18.9053 4.99968 18.7995C4.99968 18.6936 4.97807 18.5888 4.93617 18.4916C4.89427 18.3943 4.83296 18.3067 4.756 18.234L2.74 16.3H12C13.0478 16.3047 14.0584 15.912 14.828 15.201C15.1947 14.8631 15.488 14.4534 15.6897 13.9973C15.8913 13.5413 15.9969 13.0486 16 12.55V11.05C16 10.636 15.642 10.3 15.2 10.3C14.758 10.3 14.4 10.636 14.4 11.05V12.55C14.4 13.146 14.147 13.719 13.697 14.14C13.247 14.563 12.637 14.8 12 14.8H2.845L4.755 12.965C4.83196 12.8923 4.89327 12.8046 4.93517 12.7074C4.97707 12.6101 4.99868 12.5053 4.99868 12.3995C4.99868 12.2936 4.97707 12.1888 4.93517 12.0916C4.89327 11.9943 4.83196 11.9067 4.755 11.834C4.59574 11.6836 4.38502 11.5999 4.166 11.5999C3.94698 11.5999 3.73626 11.6836 3.577 11.834L0.244 15.034C0.167039 15.1067 0.105731 15.1943 0.0638296 15.2916C0.0219285 15.3888 0.000316152 15.4936 0.000316152 15.5995C0.000316152 15.7053 0.0219285 15.8101 0.0638296 15.9074C0.105731 16.0046 0.167039 16.0923 0.244 16.165L3.577 19.365Z" fill="#313132"/>
</g>
<defs>
<clipPath id="clip0_1105_252">
<rect width="16" height="20" fill="white"/>
</clipPath>
</defs>
</svg>
