<svg width="1390" height="8" viewBox="0 0 1390 8" fill="none" xmlns="http://www.w3.org/2000/svg">
<g clip-path="url(#clip0_127_662)">
<circle cx="4" cy="4" r="4" fill="#FFDBCE"/>
<circle cx="32.1936" cy="4" r="4" fill="#FFDBCE"/>
<circle cx="60.3872" cy="4" r="4" fill="#FFDBCE"/>
<circle cx="88.5806" cy="4" r="4" fill="#FFDBCE"/>
<circle cx="116.774" cy="4" r="4" fill="#FFDBCE"/>
<circle cx="144.968" cy="4" r="4" fill="#FFDBCE"/>
<circle cx="173.161" cy="4" r="4" fill="#FFDBCE"/>
<circle cx="201.355" cy="4" r="4" fill="#FFDBCE"/>
<circle cx="229.548" cy="4" r="4" fill="#FFDBCE"/>
<circle cx="257.742" cy="4" r="4" fill="#FFDBCE"/>
<circle cx="285.936" cy="4" r="4" fill="#FFDBCE"/>
<circle cx="314.129" cy="4" r="4" fill="#FFDBCE"/>
<circle cx="342.323" cy="4" r="4" fill="#FFDBCE"/>
<circle cx="370.516" cy="4" r="4" fill="#FFDBCE"/>
<circle cx="398.71" cy="4" r="4" fill="#FFDBCE"/>
<circle cx="426.903" cy="4" r="4" fill="#FFDBCE"/>
<circle cx="455.097" cy="4" r="4" fill="#FFDBCE"/>
<circle cx="483.29" cy="4" r="4" fill="#FFDBCE"/>
<circle cx="511.484" cy="4" r="4" fill="#FFDBCE"/>
<circle cx="539.677" cy="4" r="4" fill="#FFDBCE"/>
<circle cx="567.871" cy="4" r="4" fill="#FFDBCE"/>
<circle cx="596.064" cy="4" r="4" fill="#FFDBCE"/>
<circle cx="624.258" cy="4" r="4" fill="#FFDBCE"/>
<circle cx="652.452" cy="4" r="4" fill="#FFDBCE"/>
<circle cx="680.645" cy="4" r="4" fill="#FFDBCE"/>
<circle cx="708.839" cy="4" r="4" fill="#FFDBCE"/>
<circle cx="737.032" cy="4" r="4" fill="#FFDBCE"/>
<circle cx="765.226" cy="4" r="4" fill="#FFDBCE"/>
<circle cx="793.419" cy="4" r="4" fill="#FFDBCE"/>
<circle cx="821.613" cy="4" r="4" fill="#FFDBCE"/>
<circle cx="849.806" cy="4" r="4" fill="#FFDBCE"/>
<circle cx="878" cy="4" r="4" fill="#FFDBCE"/>
<circle cx="907" cy="4" r="4" fill="#FFDBCE"/>
<circle cx="935.194" cy="4" r="4" fill="#FFDBCE"/>
<circle cx="963.387" cy="4" r="4" fill="#FFDBCE"/>
<circle cx="991.581" cy="4" r="4" fill="#FFDBCE"/>
<circle cx="1019.77" cy="4" r="4" fill="#FFDBCE"/>
<circle cx="1047.97" cy="4" r="4" fill="#FFDBCE"/>
<circle cx="1076.16" cy="4" r="4" fill="#FFDBCE"/>
<circle cx="1104.35" cy="4" r="4" fill="#FFDBCE"/>
<circle cx="1132.55" cy="4" r="4" fill="#FFDBCE"/>
<circle cx="1160.74" cy="4" r="4" fill="#FFDBCE"/>
<circle cx="1188.94" cy="4" r="4" fill="#FFDBCE"/>
<circle cx="1217.13" cy="4" r="4" fill="#FFDBCE"/>
<circle cx="1245.32" cy="4" r="4" fill="#FFDBCE"/>
<circle cx="1273.52" cy="4" r="4" fill="#FFDBCE"/>
<circle cx="1301.71" cy="4" r="4" fill="#FFDBCE"/>
<circle cx="1329.9" cy="4" r="4" fill="#FFDBCE"/>
<circle cx="1358.1" cy="4" r="4" fill="#FFDBCE"/>
<circle cx="1386.29" cy="4" r="4" fill="#FFDBCE"/>
</g>
<defs>
<clipPath id="clip0_127_662">
<rect width="1390" height="8" fill="white"/>
</clipPath>
</defs>
</svg>
