<svg width="1240" height="740" viewBox="0 0 1240 740" fill="none" xmlns="http://www.w3.org/2000/svg">
<circle cx="4" cy="4" r="4" fill="#FFDBCE"/>
<circle cx="32" cy="4" r="4" fill="#FFDBCE"/>
<circle cx="60" cy="4" r="4" fill="#FFDBCE"/>
<circle cx="88" cy="4" r="4" fill="#FFDBCE"/>
<circle cx="116" cy="4" r="4" fill="#FFDBCE"/>
<circle cx="144" cy="4" r="4" fill="#FFDBCE"/>
<circle cx="172" cy="4" r="4" fill="#FFDBCE"/>
<circle cx="200" cy="4" r="4" fill="#FFDBCE"/>
<circle cx="228" cy="4" r="4" fill="#FFDBCE"/>
<circle cx="256" cy="4" r="4" fill="#FFDBCE"/>
<circle cx="284" cy="4" r="4" fill="#FFDBCE"/>
<circle cx="312" cy="4" r="4" fill="#FFDBCE"/>
<circle cx="340" cy="4" r="4" fill="#FFDBCE"/>
<circle cx="368" cy="4" r="4" fill="#FFDBCE"/>
<circle cx="396" cy="4" r="4" fill="#FFDBCE"/>
<circle cx="424" cy="4" r="4" fill="#FFDBCE"/>
<circle cx="452" cy="4" r="4" fill="#FFDBCE"/>
<circle cx="480" cy="4" r="4" fill="#FFDBCE"/>
<circle cx="508" cy="4" r="4" fill="#FFDBCE"/>
<circle cx="536" cy="4" r="4" fill="#FFDBCE"/>
<circle cx="564" cy="4" r="4" fill="#FFDBCE"/>
<circle cx="592" cy="4" r="4" fill="#FFDBCE"/>
<circle cx="620" cy="4" r="4" fill="#FFDBCE"/>
<circle cx="648" cy="4" r="4" fill="#FFDBCE"/>
<circle cx="676" cy="4" r="4" fill="#FFDBCE"/>
<circle cx="704" cy="4" r="4" fill="#FFDBCE"/>
<circle cx="732" cy="4" r="4" fill="#FFDBCE"/>
<circle cx="760" cy="4" r="4" fill="#FFDBCE"/>
<circle cx="788" cy="4" r="4" fill="#FFDBCE"/>
<circle cx="816" cy="4" r="4" fill="#FFDBCE"/>
<circle cx="844" cy="4" r="4" fill="#FFDBCE"/>
<circle cx="872" cy="4" r="4" fill="#FFDBCE"/>
<circle cx="900" cy="4" r="4" fill="#FFDBCE"/>
<circle cx="928" cy="4" r="4" fill="#FFDBCE"/>
<circle cx="956" cy="4" r="4" fill="#FFDBCE"/>
<circle cx="984" cy="4" r="4" fill="#FFDBCE"/>
<circle cx="1012" cy="4" r="4" fill="#FFDBCE"/>
<circle cx="1040" cy="4" r="4" fill="#FFDBCE"/>
<circle cx="1068" cy="4" r="4" fill="#FFDBCE"/>
<circle cx="1096" cy="4" r="4" fill="#FFDBCE"/>
<circle cx="1124" cy="4" r="4" fill="#FFDBCE"/>
<circle cx="1152" cy="4" r="4" fill="#FFDBCE"/>
<circle cx="1180" cy="4" r="4" fill="#FFDBCE"/>
<circle cx="1208" cy="4" r="4" fill="#FFDBCE"/>
<circle cx="1236" cy="4" r="4" fill="#FFDBCE"/>
<circle cx="4" cy="736" r="4" fill="#FFDBCE"/>
<circle cx="32" cy="736" r="4" fill="#FFDBCE"/>
<circle cx="60" cy="736" r="4" fill="#FFDBCE"/>
<circle cx="88" cy="736" r="4" fill="#FFDBCE"/>
<circle cx="116" cy="736" r="4" fill="#FFDBCE"/>
<circle cx="144" cy="736" r="4" fill="#FFDBCE"/>
<circle cx="172" cy="736" r="4" fill="#FFDBCE"/>
<circle cx="200" cy="736" r="4" fill="#FFDBCE"/>
<circle cx="228" cy="736" r="4" fill="#FFDBCE"/>
<circle cx="256" cy="736" r="4" fill="#FFDBCE"/>
<circle cx="284" cy="736" r="4" fill="#FFDBCE"/>
<circle cx="312" cy="736" r="4" fill="#FFDBCE"/>
<circle cx="340" cy="736" r="4" fill="#FFDBCE"/>
<circle cx="368" cy="736" r="4" fill="#FFDBCE"/>
<circle cx="396" cy="736" r="4" fill="#FFDBCE"/>
<circle cx="424" cy="736" r="4" fill="#FFDBCE"/>
<circle cx="452" cy="736" r="4" fill="#FFDBCE"/>
<circle cx="480" cy="736" r="4" fill="#FFDBCE"/>
<circle cx="508" cy="736" r="4" fill="#FFDBCE"/>
<circle cx="536" cy="736" r="4" fill="#FFDBCE"/>
<circle cx="564" cy="736" r="4" fill="#FFDBCE"/>
<circle cx="592" cy="736" r="4" fill="#FFDBCE"/>
<circle cx="620" cy="736" r="4" fill="#FFDBCE"/>
<circle cx="648" cy="736" r="4" fill="#FFDBCE"/>
<circle cx="676" cy="736" r="4" fill="#FFDBCE"/>
<circle cx="704" cy="736" r="4" fill="#FFDBCE"/>
<circle cx="732" cy="736" r="4" fill="#FFDBCE"/>
<circle cx="760" cy="736" r="4" fill="#FFDBCE"/>
<circle cx="788" cy="736" r="4" fill="#FFDBCE"/>
<circle cx="816" cy="736" r="4" fill="#FFDBCE"/>
<circle cx="844" cy="736" r="4" fill="#FFDBCE"/>
<circle cx="872" cy="736" r="4" fill="#FFDBCE"/>
<circle cx="900" cy="736" r="4" fill="#FFDBCE"/>
<circle cx="928" cy="736" r="4" fill="#FFDBCE"/>
<circle cx="956" cy="736" r="4" fill="#FFDBCE"/>
<circle cx="984" cy="736" r="4" fill="#FFDBCE"/>
<circle cx="1012" cy="736" r="4" fill="#FFDBCE"/>
<circle cx="1040" cy="736" r="4" fill="#FFDBCE"/>
<circle cx="1068" cy="736" r="4" fill="#FFDBCE"/>
<circle cx="1096" cy="736" r="4" fill="#FFDBCE"/>
<circle cx="1124" cy="736" r="4" fill="#FFDBCE"/>
<circle cx="1152" cy="736" r="4" fill="#FFDBCE"/>
<circle cx="1180" cy="736" r="4" fill="#FFDBCE"/>
<circle cx="1208" cy="736" r="4" fill="#FFDBCE"/>
<circle cx="1236" cy="736" r="4" fill="#FFDBCE"/>
<circle cx="1236" cy="704" r="4" transform="rotate(-90 1236 704)" fill="#FFDBCE"/>
<circle cx="1236" cy="676" r="4" transform="rotate(-90 1236 676)" fill="#FFDBCE"/>
<circle cx="1236" cy="648" r="4" transform="rotate(-90 1236 648)" fill="#FFDBCE"/>
<circle cx="1236" cy="620" r="4" transform="rotate(-90 1236 620)" fill="#FFDBCE"/>
<circle cx="1236" cy="592" r="4" transform="rotate(-90 1236 592)" fill="#FFDBCE"/>
<circle cx="1236" cy="564" r="4" transform="rotate(-90 1236 564)" fill="#FFDBCE"/>
<circle cx="1236" cy="536" r="4" transform="rotate(-90 1236 536)" fill="#FFDBCE"/>
<circle cx="1236" cy="508" r="4" transform="rotate(-90 1236 508)" fill="#FFDBCE"/>
<circle cx="1236" cy="480" r="4" transform="rotate(-90 1236 480)" fill="#FFDBCE"/>
<circle cx="1236" cy="452" r="4" transform="rotate(-90 1236 452)" fill="#FFDBCE"/>
<circle cx="1236" cy="424" r="4" transform="rotate(-90 1236 424)" fill="#FFDBCE"/>
<circle cx="1236" cy="396" r="4" transform="rotate(-90 1236 396)" fill="#FFDBCE"/>
<circle cx="1236" cy="368" r="4" transform="rotate(-90 1236 368)" fill="#FFDBCE"/>
<circle cx="1236" cy="340" r="4" transform="rotate(-90 1236 340)" fill="#FFDBCE"/>
<circle cx="1236" cy="312" r="4" transform="rotate(-90 1236 312)" fill="#FFDBCE"/>
<circle cx="1236" cy="284" r="4" transform="rotate(-90 1236 284)" fill="#FFDBCE"/>
<circle cx="1236" cy="256" r="4" transform="rotate(-90 1236 256)" fill="#FFDBCE"/>
<circle cx="1236" cy="228" r="4" transform="rotate(-90 1236 228)" fill="#FFDBCE"/>
<circle cx="1236" cy="200" r="4" transform="rotate(-90 1236 200)" fill="#FFDBCE"/>
<circle cx="1236" cy="172" r="4" transform="rotate(-90 1236 172)" fill="#FFDBCE"/>
<circle cx="1236" cy="144" r="4" transform="rotate(-90 1236 144)" fill="#FFDBCE"/>
<circle cx="1236" cy="116" r="4" transform="rotate(-90 1236 116)" fill="#FFDBCE"/>
<circle cx="1236" cy="88" r="4" transform="rotate(-90 1236 88)" fill="#FFDBCE"/>
<circle cx="1236" cy="60" r="4" transform="rotate(-90 1236 60)" fill="#FFDBCE"/>
<circle cx="1236" cy="32" r="4" transform="rotate(-90 1236 32)" fill="#FFDBCE"/>
<circle cx="1236" cy="4" r="4" transform="rotate(-90 1236 4)" fill="#FFDBCE"/>
<circle cx="4" cy="704" r="4" transform="rotate(-90 4 704)" fill="#FFDBCE"/>
<circle cx="4" cy="676" r="4" transform="rotate(-90 4 676)" fill="#FFDBCE"/>
<circle cx="4" cy="648" r="4" transform="rotate(-90 4 648)" fill="#FFDBCE"/>
<circle cx="4" cy="620" r="4" transform="rotate(-90 4 620)" fill="#FFDBCE"/>
<circle cx="4" cy="592" r="4" transform="rotate(-90 4 592)" fill="#FFDBCE"/>
<circle cx="4" cy="564" r="4" transform="rotate(-90 4 564)" fill="#FFDBCE"/>
<circle cx="4" cy="536" r="4" transform="rotate(-90 4 536)" fill="#FFDBCE"/>
<circle cx="4" cy="508" r="4" transform="rotate(-90 4 508)" fill="#FFDBCE"/>
<circle cx="4" cy="480" r="4" transform="rotate(-90 4 480)" fill="#FFDBCE"/>
<circle cx="4" cy="452" r="4" transform="rotate(-90 4 452)" fill="#FFDBCE"/>
<circle cx="4" cy="424" r="4" transform="rotate(-90 4 424)" fill="#FFDBCE"/>
<circle cx="4" cy="396" r="4" transform="rotate(-90 4 396)" fill="#FFDBCE"/>
<circle cx="4" cy="368" r="4" transform="rotate(-90 4 368)" fill="#FFDBCE"/>
<circle cx="4" cy="340" r="4" transform="rotate(-90 4 340)" fill="#FFDBCE"/>
<circle cx="4" cy="312" r="4" transform="rotate(-90 4 312)" fill="#FFDBCE"/>
<circle cx="4" cy="284" r="4" transform="rotate(-90 4 284)" fill="#FFDBCE"/>
<circle cx="4" cy="256" r="4" transform="rotate(-90 4 256)" fill="#FFDBCE"/>
<circle cx="4" cy="228" r="4" transform="rotate(-90 4 228)" fill="#FFDBCE"/>
<circle cx="4" cy="200" r="4" transform="rotate(-90 4 200)" fill="#FFDBCE"/>
<circle cx="4" cy="172" r="4" transform="rotate(-90 4 172)" fill="#FFDBCE"/>
<circle cx="4" cy="144" r="4" transform="rotate(-90 4 144)" fill="#FFDBCE"/>
<circle cx="4" cy="116" r="4" transform="rotate(-90 4 116)" fill="#FFDBCE"/>
<circle cx="4" cy="88" r="4" transform="rotate(-90 4 88)" fill="#FFDBCE"/>
<circle cx="4" cy="60" r="4" transform="rotate(-90 4 60)" fill="#FFDBCE"/>
<circle cx="4" cy="32" r="4" transform="rotate(-90 4 32)" fill="#FFDBCE"/>
<circle cx="4" cy="4" r="4" transform="rotate(-90 4 4)" fill="#FFDBCE"/>
</svg>
