<svg width="27" height="27" viewBox="0 0 27 27" fill="none" xmlns="http://www.w3.org/2000/svg">
<g clip-path="url(#clip0_40_12)">
<path d="M26.9739 7.93807C26.9106 6.50346 26.6786 5.51718 26.3463 4.66255C26.0035 3.75538 25.476 2.94319 24.785 2.26802C24.1098 1.58234 23.2923 1.04954 22.3956 0.712053C21.536 0.379721 20.5549 0.147726 19.1203 0.0844739C17.675 0.0158646 17.2161 0 13.5504 0C9.88461 0 9.42577 0.0158646 7.9858 0.079117C6.55119 0.142369 5.5649 0.37457 4.71048 0.706696C3.80311 1.04954 2.99092 1.57698 2.31575 2.26802C1.63007 2.94319 1.09747 3.76074 0.759782 4.6574C0.42745 5.51718 0.195456 6.4981 0.132203 7.93272C0.0635941 9.37805 0.0477295 9.83688 0.0477295 13.5026C0.0477295 17.1684 0.0635941 17.6272 0.126846 19.0672C0.190099 20.5018 0.422299 21.4881 0.754631 22.3427C1.09747 23.2499 1.63007 24.0621 2.31575 24.7373C2.99092 25.4229 3.80846 25.9557 4.70512 26.2932C5.5649 26.6256 6.54583 26.8575 7.98065 26.9208C9.42041 26.9843 9.87946 26.9999 13.5452 26.9999C17.211 26.9999 17.6698 26.9843 19.1098 26.9208C20.5444 26.8575 21.5307 26.6256 22.3851 26.2932C24.1996 25.5917 25.6342 24.1571 26.3358 22.3427C26.6679 21.4829 26.9001 20.5018 26.9634 19.0672C27.0266 17.6272 27.0425 17.1684 27.0425 13.5026C27.0425 9.83688 27.0371 9.37805 26.9739 7.93807ZM24.5425 18.9617C24.4844 20.2803 24.2629 20.9924 24.0783 21.4671C23.6246 22.6433 22.691 23.5769 21.5148 24.0306C21.0401 24.2152 20.3229 24.4367 19.0094 24.4945C17.5853 24.558 17.1582 24.5737 13.5557 24.5737C9.95322 24.5737 9.52075 24.558 8.1018 24.4945C6.78318 24.4367 6.07113 24.2152 5.59643 24.0306C5.01108 23.8142 4.47828 23.4714 4.04582 23.0231C3.59749 22.5852 3.25465 22.0578 3.03831 21.4724C2.8537 20.9977 2.63222 20.2803 2.57432 18.9671C2.51086 17.543 2.4952 17.1156 2.4952 13.5131C2.4952 9.91064 2.51086 9.47818 2.57432 8.05943C2.63222 6.74081 2.8537 6.02876 3.03831 5.55406C3.25465 4.96851 3.59749 4.43591 4.05117 4.00324C4.48879 3.55491 5.01623 3.21207 5.60178 2.99594C6.07648 2.81133 6.79389 2.58985 8.10715 2.53174C9.53126 2.46849 9.95857 2.45263 13.5609 2.45263C17.1687 2.45263 17.5958 2.46849 19.0148 2.53174C20.3334 2.58985 21.0455 2.81133 21.5202 2.99594C22.1055 3.21207 22.6383 3.55491 23.0708 4.00324C23.5191 4.44106 23.8619 4.96851 24.0783 5.55406C24.2629 6.02876 24.4844 6.74596 24.5425 8.05943C24.6057 9.48353 24.6216 9.91064 24.6216 13.5131C24.6216 17.1156 24.6057 17.5376 24.5425 18.9617Z" fill="white"/>
<path d="M13.5502 6.56671C9.72104 6.56671 6.61426 9.67329 6.61426 13.5026C6.61426 17.332 9.72104 20.4386 13.5502 20.4386C17.3795 20.4386 20.4861 17.332 20.4861 13.5026C20.4861 9.67329 17.3795 6.56671 13.5502 6.56671ZM13.5502 18.0018C11.066 18.0018 9.05102 15.987 9.05102 13.5026C9.05102 11.0183 11.066 9.00347 13.5502 9.00347C16.0345 9.00347 18.0493 11.0183 18.0493 13.5026C18.0493 15.987 16.0345 18.0018 13.5502 18.0018Z" fill="white"/>
<path d="M22.379 6.2925C22.379 7.18669 21.654 7.91172 20.7596 7.91172C19.8654 7.91172 19.1404 7.18669 19.1404 6.2925C19.1404 5.39811 19.8654 4.67328 20.7596 4.67328C21.654 4.67328 22.379 5.39811 22.379 6.2925Z" fill="white"/>
</g>
<defs>
<clipPath id="clip0_40_12">
<rect width="27" height="27" fill="white"/>
</clipPath>
</defs>
</svg>
