<svg width="26" height="18" viewBox="0 0 26 18" fill="none" xmlns="http://www.w3.org/2000/svg">
<path d="M21.4604 10.0601C21.0423 9.44604 21.1619 9.17286 21.4604 8.62399C21.4657 8.61772 24.9173 3.0714 25.2729 1.19047L25.2751 1.18921C25.4518 0.503755 25.2751 0 24.4205 0H21.5929C20.8731 0 20.5412 0.432327 20.3634 0.916033C20.3634 0.916033 18.9237 4.92352 16.887 7.52124C16.2297 8.27186 15.9258 8.51246 15.567 8.51246C15.3903 8.51246 15.1155 8.27186 15.1155 7.5864V1.18921C15.1155 0.367165 14.914 0 14.318 0H9.87187C9.42036 0 9.15204 0.383456 9.15204 0.740596C9.15204 1.52004 10.1704 1.69923 10.276 3.8922V8.6503C10.276 9.6929 10.1133 9.88463 9.75226 9.88463C8.79104 9.88463 6.45804 5.86085 5.07549 1.25563C4.79639 0.362152 4.52376 0.00125303 3.79853 0.00125303H0.969838C0.162717 0.00125303 0 0.43358 0 0.917286C0 1.77192 0.961217 6.02125 4.46988 11.6352C6.80826 15.4673 10.1014 17.5437 13.0971 17.5437C14.8978 17.5437 15.1176 17.0826 15.1176 16.2893C15.1176 12.6277 14.9549 12.2819 15.8569 12.2819C16.275 12.2819 16.9948 12.5225 18.6758 14.3708C20.5972 16.5625 20.9129 17.5437 21.9884 17.5437H24.816C25.622 17.5437 26.0305 17.0826 25.7955 16.1728C25.2578 14.2593 21.6242 10.3232 21.4604 10.0601Z" fill="white"/>
</svg>
