<svg width="26" height="22" viewBox="0 0 26 22" fill="none" xmlns="http://www.w3.org/2000/svg">
<path d="M11.1969 8.15338V13.551L15.2725 10.8522L11.1969 8.15338Z" fill="white"/>
<path d="M25.3283 3.769C24.9789 2.23923 23.9489 1.03483 22.6407 0.625719C20.7011 0.0176678 13.7209 0 12.9312 0C12.1416 0 5.16136 0.0176679 3.22215 0.62549C1.91356 1.03483 0.883575 2.23923 0.534328 3.76831C0.00611675 6.07501 0 10.6583 0 10.8522C0 11.0461 0.00611675 15.6294 0.534131 17.9354C0.883575 19.4652 1.91356 20.6696 3.22175 21.0787C5.16136 21.6868 12.1416 21.7044 12.9312 21.7044C13.7209 21.7044 20.7011 21.6868 22.6403 21.079C23.9489 20.6696 24.9789 19.4652 25.3281 17.9361C25.8563 15.6294 25.8624 11.0461 25.8624 10.8522C25.8624 10.6583 25.8563 6.07501 25.3283 3.769ZM9.68243 16.5826V5.12186L18.3359 10.8525L9.68243 16.5826Z" fill="white"/>
</svg>
